<?xml version="1.0" encoding="UTF-8"?>
<svg version="1.1" xmlns="http://www.w3.org/2000/svg" width="512" height="512">
<path d="M0 0 C2.51259939 1.33438068 4.99342022 2.7155274 7.47021484 4.11523438 C9.41878097 5.19713979 11.36803353 6.27780957 13.31787109 7.35742188 C14.34541504 7.9281543 15.37295898 8.49888672 16.43164062 9.08691406 C22.06209529 12.19060952 27.73622548 15.21237883 33.40771484 18.24023438 C35.7959964 19.51709089 38.18389905 20.79465515 40.57177734 22.07226562 C41.4590023 22.54683449 41.4590023 22.54683449 42.364151 23.0309906 C51.73371078 28.04403667 61.08553951 33.0900958 70.43994141 38.13134766 C75.84516921 41.04393703 81.25150052 43.95447667 86.65771484 46.86523438 C88.82438674 48.03189134 90.9910534 49.198558 93.15771484 50.36523438 C94.76646484 51.23148438 94.76646484 51.23148438 96.40771484 52.11523438 C108.32438151 58.53190104 120.24104818 64.94856771 132.15771484 71.36523438 C133.23037598 71.94281494 134.30303711 72.52039551 135.40820312 73.11547852 C137.5732631 74.28129255 139.73830218 75.44714537 141.90332031 76.61303711 C147.3443982 79.5430686 152.78584572 82.47240963 158.22802734 85.40039062 C163.61908934 88.30092933 169.00823478 91.20500962 174.39697266 94.10986328 C177.7813683 95.93180134 181.16867008 97.74826135 184.55615234 99.56445312 C186.75674077 100.7479212 188.95726403 101.93151046 191.15771484 103.11523438 C192.18525879 103.66445557 193.21280273 104.21367676 194.27148438 104.77954102 C195.21362793 105.28735107 196.15577148 105.79516113 197.12646484 106.31835938 C197.95597656 106.7634082 198.78548828 107.20845703 199.64013672 107.66699219 C201.65771484 108.86523438 201.65771484 108.86523438 203.65771484 110.86523438 C203.926157 113.72108173 203.926157 113.72108173 203.95205688 117.45002747 C203.95941026 118.13424528 203.96676364 118.8184631 203.97433984 119.52341479 C203.99645136 121.82724466 204.00410722 124.13089425 204.01171875 126.43481445 C204.02424519 128.0821541 204.03753853 129.72948806 204.05154419 131.3768158 C204.08638868 135.86034144 204.10747392 140.3438244 204.12395525 144.82745194 C204.13424977 147.62726667 204.14640143 150.42706807 204.15897751 153.2268734 C204.19708745 161.98288186 204.22554905 170.73885651 204.24220145 179.494932 C204.26175485 189.60999694 204.31441124 199.72418752 204.39520323 209.83894426 C204.45547488 217.6521692 204.48513417 225.46514315 204.49176347 233.2785961 C204.49647032 237.9477248 204.51446153 242.61591978 204.56468582 247.28479958 C204.61117276 251.67726937 204.61974769 256.06818842 204.59916306 260.46084023 C204.5981702 262.07296399 204.61087571 263.68516307 204.63827515 265.29705429 C204.83375137 277.47832098 204.83375137 277.47832098 201.95432663 280.87405968 C199.88183059 282.19708509 197.96497595 283.03479982 195.65771484 283.86523438 C194.31175588 284.61380386 192.9773127 285.38361643 191.65771484 286.17773438 C190.17271484 287.01304687 190.17271484 287.01304687 188.65771484 287.86523438 C189.7238501 288.52313965 190.78998535 289.18104492 191.88842773 289.85888672 C198.06701062 294.338662 202.74781156 298.97990735 204.53240967 306.60021973 C205.92580716 316.63725544 205.45640942 326.88317566 205.1539917 336.98022461 C205.07522969 340.34368142 205.08294092 343.70466486 205.09194851 347.06885719 C205.09365887 350.31919581 205.05413002 353.56795885 205.00081062 356.8178215 C204.97795772 358.36541844 204.96490232 359.91319357 204.96203423 361.46095657 C204.8917943 373.4098651 204.8917943 373.4098651 201.98535156 376.83747864 C199.91616766 378.16043538 197.96304276 379.03280795 195.65771484 379.86523438 C194.70654785 380.4033374 193.75538086 380.94144043 192.77539062 381.49584961 C191.89351074 381.96708252 191.01163086 382.43831543 190.10302734 382.92382812 C189.08982422 383.46716797 188.07662109 384.01050781 187.03271484 384.5703125 C185.96021484 385.14201172 184.88771484 385.71371094 183.78271484 386.30273438 C182.04615552 387.23303401 180.30959846 388.1633379 178.57318115 389.09390259 C176.78181157 390.05349696 174.98982712 391.01193528 173.19775391 391.97021484 C167.67795405 394.92322291 162.16842812 397.89531612 156.65771484 400.86523438 C154.49109528 402.03198851 152.32442848 403.19865495 150.15771484 404.36523438 C148.54896484 405.23148437 148.54896484 405.23148437 146.90771484 406.11523438 C126.32438151 417.19856771 105.74104818 428.28190104 85.15771484 439.36523438 C84.08537598 439.94265381 83.01303711 440.52007324 81.90820312 441.11499023 C79.73992976 442.28250952 77.57163546 443.44998994 75.40332031 444.61743164 C70.01106456 447.52073608 64.61916549 450.42469887 59.22802734 453.33007812 C57.07961095 454.48766937 54.93117342 455.64522141 52.78271484 456.80273438 C51.72117187 457.37475586 50.65962891 457.94677734 49.56591797 458.53613281 C43.85917809 461.60938918 38.14821856 464.67452685 32.43115234 467.72851562 C31.82834442 468.05077118 31.2255365 468.37302673 30.60446167 468.70504761 C27.60460779 470.30868876 24.60367123 471.91023042 21.60058594 473.5078125 C16.41271844 476.27643302 11.25250254 479.06910317 6.17333984 482.03320312 C4.9484082 482.74234863 4.9484082 482.74234863 3.69873047 483.46582031 C2.23533733 484.3197782 0.77991227 485.18764066 -0.66455078 486.07324219 C-5.14328206 488.6817093 -9.15224897 490.16166261 -14.34228516 488.86523438 C-19.03491784 486.79547856 -23.41884932 484.25613345 -27.84228516 481.67773438 C-29.13134108 480.94327823 -30.4214779 480.21071619 -31.71264648 479.47998047 C-34.33440348 477.99515218 -36.95207533 476.50347917 -39.56738281 475.00732422 C-45.0043481 471.90851153 -50.51616175 468.94981556 -56.02978516 465.99023438 C-63.42961146 461.99629438 -70.8063829 457.96571625 -78.15039062 453.87011719 C-85.14019923 449.97233985 -92.14651536 446.10468262 -99.15478516 442.24023438 C-100.40568163 441.5503767 -101.65657681 440.86051665 -102.9074707 440.1706543 C-105.45160495 438.76764075 -107.99580663 437.36474955 -110.54003906 435.96191406 C-115.44141947 433.25929106 -120.34207236 430.55534991 -125.24267578 427.85131836 C-127.64621179 426.52511006 -130.04986392 425.19911258 -132.45361328 423.87329102 C-137.93964678 420.84723999 -143.42509531 417.8201492 -148.90794373 414.78833008 C-160.92436184 408.14378956 -172.94858511 401.5166254 -185.02978516 394.99023438 C-222.41899939 374.78852014 -222.41899939 374.78852014 -225.34228516 371.86523438 C-225.44350024 369.80096978 -225.47306236 367.73318528 -225.47599792 365.66644287 C-225.47826348 365.01166435 -225.48052904 364.35688582 -225.48286325 363.68226552 C-225.48923039 361.47207872 -225.48837215 359.26195281 -225.48754883 357.05175781 C-225.49053872 355.47353536 -225.49394085 353.89531364 -225.49772644 352.3170929 C-225.50659008 348.01736285 -225.5089056 343.71765269 -225.50954223 339.41791439 C-225.51048977 335.8320047 -225.51416645 332.24609968 -225.51771432 328.66019177 C-225.5258686 320.1994028 -225.52829775 311.73862448 -225.52758789 303.27783203 C-225.5269875 294.54544845 -225.53752939 285.81312674 -225.55333155 277.08075881 C-225.56640421 269.59027367 -225.57177187 262.09980875 -225.57113248 254.6093123 C-225.57087732 250.13280712 -225.57373804 245.65635682 -225.58431053 241.17986298 C-225.59398638 236.96757805 -225.59407422 232.7554005 -225.5867939 228.5431118 C-225.58574727 226.99715455 -225.58811558 225.45119064 -225.59415436 223.90524483 C-225.60186666 221.79402353 -225.59723467 219.6831737 -225.58952332 217.57196045 C-225.59006808 216.39059887 -225.59061285 215.20923729 -225.59117413 213.99207687 C-225.33822189 210.81418672 -224.84253838 208.66927012 -223.34228516 205.86523438 C-220.96155848 204.22955526 -218.75546806 202.87711298 -216.21728516 201.55273438 C-215.22921875 201.01422852 -215.22921875 201.01422852 -214.22119141 200.46484375 C-212.6021022 199.58490396 -210.97311066 198.72322743 -209.34228516 197.86523438 C-209.79144287 197.42655029 -210.24060059 196.98786621 -210.70336914 196.53588867 C-212.73406085 194.54675237 -214.75696795 192.54987665 -216.77978516 190.55273438 C-217.48683594 189.86244141 -218.19388672 189.17214844 -218.92236328 188.4609375 C-219.93266602 187.46030273 -219.93266602 187.46030273 -220.96337891 186.43945312 C-221.89815063 185.52039185 -221.89815063 185.52039185 -222.85180664 184.58276367 C-225.76814854 181.2221633 -225.47819703 177.79595627 -225.50341797 173.54541016 C-225.51302551 172.24040558 -225.52263306 170.935401 -225.53253174 169.59085083 C-225.53737961 168.16408462 -225.54165847 166.73731639 -225.54541016 165.31054688 C-225.55116381 163.8470764 -225.55692152 162.38360594 -225.56268311 160.9201355 C-225.57318482 157.85186411 -225.57903296 154.78361886 -225.58251953 151.71533203 C-225.58800368 147.78888583 -225.61203315 143.8627865 -225.64049149 139.93644905 C-225.65913938 136.91322834 -225.66432459 133.89009084 -225.66585541 130.86681747 C-225.66887744 129.41956561 -225.67689084 127.97231506 -225.69004059 126.52511978 C-225.7071447 124.49809916 -225.70336972 122.47093513 -225.69873047 120.44384766 C-225.7023761 119.29151642 -225.70602173 118.13918518 -225.70977783 116.95193481 C-225.2962593 113.47864703 -224.43838731 111.64249848 -222.34228516 108.86523438 C-220.02287993 107.35286355 -217.84365322 106.09288756 -215.38525391 104.86132812 C-214.6947142 104.50154877 -214.0041745 104.14176941 -213.29270935 103.77108765 C-211.044482 102.60277144 -208.78727869 101.45302699 -206.52978516 100.30273438 C-204.96632246 99.49332389 -203.40366345 98.68235919 -201.84179688 97.86987305 C-198.74667154 96.26017842 -195.64908522 94.65538841 -192.54980469 93.05371094 C-187.31285379 90.33920839 -182.13286536 87.52536885 -176.96728516 84.67773438 C-168.86867714 80.23208928 -160.73895901 75.84714578 -152.59228516 71.49023438 C-150.20425252 70.2129127 -147.81622458 68.93558222 -145.42822266 67.65820312 C-144.83686523 67.34189941 -144.24550781 67.0255957 -143.63623047 66.69970703 C-137.49073637 63.41156479 -131.35329771 60.10852739 -125.21728516 56.80273438 C-124.1528418 56.2292627 -123.08839844 55.65579102 -121.99169922 55.06494141 C-119.84777679 53.90974632 -117.70389648 52.75447307 -115.56005859 51.59912109 C-110.15483079 48.68653172 -104.74849948 45.77599208 -99.34228516 42.86523438 C-97.17561326 41.69857741 -95.0089466 40.53191075 -92.84228516 39.36523438 C-79.84228516 32.36523438 -79.84228516 32.36523438 -76.59082031 30.61450195 C-74.42897371 29.45039321 -72.26718963 28.28616836 -70.10546875 27.12182617 C-64.61556768 24.1650573 -59.12452036 21.21045244 -53.63134766 18.25976562 C-51.40991492 17.06590138 -49.18855993 15.87189248 -46.96728516 14.67773438 C-45.89599365 14.10192627 -44.82470215 13.52611816 -43.72094727 12.93286133 C-35.91356923 8.72925656 -28.1369675 4.47199302 -20.39355469 0.15161133 C-19.6354248 -0.26902588 -18.87729492 -0.68966309 -18.09619141 -1.12304688 C-17.43949463 -1.48954346 -16.78279785 -1.85604004 -16.10620117 -2.23364258 C-10.21085695 -5.24536791 -5.63095331 -2.72802491 0 0 Z M-17.50634766 13.43554688 C-19.04548828 14.27472656 -19.04548828 14.27472656 -20.61572266 15.13085938 C-21.72173828 15.74445312 -22.82775391 16.35804687 -23.96728516 16.99023438 C-25.73054362 17.95451635 -27.49380883 18.91878628 -29.25750732 19.88226318 C-31.08564614 20.88223547 -32.91183404 21.88570209 -34.73779297 22.88964844 C-40.25299912 25.91785829 -45.79910977 28.88864134 -51.34228516 31.86523438 C-53.50909839 33.0316288 -55.67576459 34.19829642 -57.84228516 35.36523438 C-148.84228516 84.36523437 -148.84228516 84.36523437 -152.09643555 86.11743164 C-154.24930944 87.27669634 -156.40214191 88.43603799 -158.55493164 89.59545898 C-163.58668426 92.30527498 -168.61882264 95.01436591 -173.65249634 97.72061157 C-175.4261495 98.67422533 -177.19966704 99.62809083 -178.97314453 100.58203125 C-181.19162624 101.77523854 -183.41035907 102.96797911 -185.62939453 104.16015625 C-191.55927288 107.35025673 -197.46714394 110.57534048 -203.34228516 113.86523438 C-203.34228516 114.52523437 -203.34228516 115.18523437 -203.34228516 115.86523438 C-202.48812012 116.31737305 -201.63395508 116.76951172 -200.75390625 117.23535156 C-186.29828083 124.88968063 -171.84653626 132.54678577 -157.50292969 140.40966797 C-150.22253179 144.3966491 -142.9116846 148.32539219 -135.59228516 152.24023438 C-134.39957682 152.87825521 -133.20686849 153.51627604 -132.01416016 154.15429688 C-131.12845337 154.62808777 -131.12845337 154.62808777 -130.22485352 155.1114502 C-129.63454346 155.42723022 -129.0442334 155.74301025 -128.43603516 156.06835938 C-127.54960327 156.54251282 -127.54960327 156.54251282 -126.64526367 157.02624512 C-111.19554296 165.29253306 -95.77996871 173.62226963 -80.37597656 181.97338867 C-73.07922038 185.92794109 -65.77523336 189.86890585 -58.46728516 193.80273438 C-57.40082764 194.37685059 -56.33437012 194.9509668 -55.2355957 195.54248047 C-50.14850279 198.28041986 -45.06063681 201.01691273 -39.97143555 203.75093079 C-38.18392306 204.71134398 -36.39661547 205.67213736 -34.609375 206.63305664 C-32.36662924 207.83875042 -30.123488 209.04370897 -27.87988281 210.24780273 C-26.8632959 210.7944458 -25.84670898 211.34108887 -24.79931641 211.90429688 C-23.37159912 212.66661621 -23.37159912 212.66661621 -21.91503906 213.44433594 C-19.70692932 214.66384616 -17.60290692 215.96905648 -15.47900391 217.32617188 C-11.68847402 219.18603336 -10.37565774 218.84557888 -6.34228516 217.86523438 C-3.6402918 216.71399323 -3.6402918 216.71399323 -0.98291016 215.19726562 C0.03673828 214.64103516 1.05638672 214.08480469 2.10693359 213.51171875 C3.19619141 212.90650391 4.28544922 212.30128906 5.40771484 211.67773438 C7.15751864 210.72016458 8.90732965 209.76260765 10.65759277 208.80587769 C12.46831699 207.81475187 14.27700408 206.81998422 16.08544922 205.82470703 C21.58900809 202.80020693 27.12499452 199.83593275 32.65771484 196.86523438 C34.82453329 195.69884963 36.99119952 194.53218206 39.15771484 193.36523438 C104.15771484 158.36523438 104.15771484 158.36523438 107.40820312 156.61499023 C109.5732631 155.4491762 111.73830218 154.28332338 113.90332031 153.11743164 C119.3443982 150.18740015 124.78584572 147.25805912 130.22802734 144.33007812 C141.06488019 138.49893809 151.89778838 132.66061408 162.72021484 126.80273438 C163.68910645 126.2786499 164.65799805 125.75456543 165.65625 125.21459961 C171.34353581 122.13377885 177.01095126 119.01972936 182.65771484 115.86523438 C182.65771484 115.20523438 182.65771484 114.54523438 182.65771484 113.86523438 C181.94566895 113.48415527 181.23362305 113.10307617 180.5 112.71044922 C164.28002965 104.02849803 148.07077941 95.32704859 131.87548828 86.59912109 C126.47026047 83.68653172 121.06392917 80.77599208 115.65771484 77.86523438 C113.49104295 76.69857741 111.32437628 75.53191075 109.15771484 74.36523438 C107.54896484 73.49898437 107.54896484 73.49898437 105.90771484 72.61523438 C85.32438151 61.53190104 64.74104818 50.44856771 44.15771484 39.36523438 C43.08368408 38.78692871 42.00965332 38.20862305 40.90307617 37.61279297 C38.75180894 36.45438096 36.60060378 35.29585365 34.44946289 34.13720703 C29.39943837 31.41734407 24.34881728 28.69860847 19.29592896 25.98406982 C17.50686502 25.02286927 15.71800214 24.06129557 13.92919922 23.09960938 C11.68480665 21.89313748 9.44003724 20.68736625 7.19482422 19.48242188 C6.17839844 18.93585937 5.16197266 18.38929687 4.11474609 17.82617188 C3.1655127 17.31666992 2.2162793 16.80716797 1.23828125 16.28222656 C-0.98725515 15.06018179 -3.15896447 13.78092989 -5.33056641 12.46679688 C-10.22985659 9.86146746 -12.93591459 10.91744463 -17.50634766 13.43554688 Z M-212.34228516 125.86523438 C-215.77845628 145.35075179 -218.8012213 167.85111449 -207.01073998 184.99865139 C-197.50196153 197.38113113 -186.0215695 208.15369966 -174.63309461 218.78307519 C-169.07909513 223.97671562 -163.67405566 229.31602198 -158.27067327 234.66546015 C-148.63753691 244.19492855 -138.89870402 253.60785588 -129.08422852 262.95019531 C-119.57221648 272.00508896 -110.11756631 281.11417915 -100.73071289 290.29882812 C-99.85786479 291.15282007 -99.85786479 291.15282007 -98.96738339 292.02406438 C-96.04738096 294.88161056 -93.12837202 297.74016928 -90.20977509 300.5991509 C-72.0184261 318.41596351 -53.74712512 336.1475488 -35.35620117 353.75830078 C-34.43005445 354.64654226 -33.50390774 355.53478374 -32.54969597 356.44994164 C-29.99108059 358.90247418 -27.42905488 361.35137538 -24.86549377 363.79873657 C-24.1096717 364.5233655 -23.35384962 365.24799443 -22.57512385 365.99458182 C-21.89387066 366.64300901 -21.21261747 367.29143621 -20.51072025 367.95951271 C-19.62274426 368.80740283 -19.62274426 368.80740283 -18.71682936 369.67242205 C-17.51972977 370.97447002 -17.51972977 370.97447002 -16.34228516 370.86523438 C-16.34228516 324.66523438 -16.34228516 278.46523438 -16.34228516 230.86523438 C-33.69728179 221.39016703 -33.69728179 221.39016703 -51.09228516 211.99023438 C-53.2980293 210.80406431 -55.50375802 209.61786556 -57.70947266 208.43164062 C-58.80743164 207.84141113 -59.90539062 207.25118164 -61.03662109 206.64306641 C-64.28782279 204.89452499 -67.53792561 203.14396055 -70.78759766 201.39257812 C-79.66276096 196.60970137 -88.5381321 191.82735816 -97.42822266 187.07226562 C-98.01920746 186.75614822 -98.61019226 186.44003082 -99.21908569 186.11433411 C-99.81033234 185.79808578 -100.40157898 185.48183746 -101.01074219 185.15600586 C-110.47397862 180.094256 -119.92799045 175.01761717 -129.34228516 169.86523438 C-140.4847719 163.76780089 -151.68153639 157.77283862 -162.88391113 151.78645325 C-166.56764195 149.8170344 -170.2479697 147.84141873 -173.92550659 145.86045837 C-176.38940599 144.53325098 -178.8542121 143.20773188 -181.31903076 141.88223267 C-183.01464093 140.96952831 -184.70901099 140.05452123 -186.40332031 139.1394043 C-192.47668916 135.87543822 -198.58922777 132.71685845 -204.76123047 129.64428711 C-205.49411285 129.27867424 -206.22699524 128.91306137 -206.98208618 128.53636932 C-208.76848046 127.64531163 -210.55533476 126.7551763 -212.34228516 125.86523438 Z M186.30224609 128.06835938 C185.38161377 128.54764893 184.46098145 129.02693848 183.51245117 129.52075195 C182.00654419 130.31002075 182.00654419 130.31002075 180.47021484 131.11523438 C179.43082764 131.65881592 178.39144043 132.20239746 177.32055664 132.76245117 C169.59572526 136.81636503 161.92413719 140.96090804 154.27514648 145.15576172 C146.8433016 149.22902849 139.38115154 153.24386992 131.90771484 157.24023438 C129.51966447 158.5175229 127.13164545 159.79487003 124.74365234 161.07226562 C124.15223953 161.38859955 123.56082672 161.70493347 122.95149231 162.03085327 C116.8060519 165.31896077 110.66867128 168.62197159 104.53271484 171.92773438 C103.46827148 172.50120605 102.40382813 173.07467773 101.30712891 173.66552734 C99.16320648 174.82072243 97.01932617 175.97599568 94.87548828 177.13134766 C89.47026047 180.04393703 84.06392917 182.95447667 78.65771484 185.86523438 C76.49104295 187.03189134 74.32437628 188.198558 72.15771484 189.36523438 C59.15771484 196.36523437 59.15771484 196.36523437 55.90576172 198.11621094 C53.74552179 199.27946701 51.58536513 200.44287774 49.42529297 201.60644531 C43.91098003 204.57658671 38.39511457 207.54378274 32.87646484 210.50585938 C31.75111328 211.11042969 30.62576172 211.715 29.46630859 212.33789062 C27.36530212 213.46653047 25.26379736 214.59424361 23.16162109 215.72070312 C13.93936556 220.67721103 4.81344167 225.77871947 -4.34228516 230.86523438 C-4.34228516 278.71523438 -4.34228516 326.56523437 -4.34228516 375.86523438 C6.27037732 370.55890314 16.81888007 365.19946728 27.28271484 359.61523438 C28.68976101 358.86609643 30.09682509 358.11699214 31.50390625 357.36791992 C41.12159668 352.24259143 50.70148522 347.05064702 60.25927734 341.81445312 C69.58901944 336.70744695 78.96639456 331.68805722 88.33447266 326.65185547 C93.81809924 323.70378176 99.3006326 320.75367874 104.78271484 317.80273438 C105.86004883 317.22281738 106.93738281 316.64290039 108.04736328 316.04541016 C116.24537617 311.63043092 124.43369513 307.19774696 132.61914062 302.75952148 C140.91223164 298.26465255 149.21607612 293.78992985 157.52490234 289.32421875 C168.91694168 283.19759813 180.28385359 277.02607589 191.65771484 270.86523438 C191.65771484 223.01523438 191.65771484 175.16523438 191.65771484 125.86523438 C189.73307463 125.86523438 187.9652071 127.20192345 186.30224609 128.06835938 Z M-212.34228516 226.86523438 C-212.34228516 272.40523438 -212.34228516 317.94523437 -212.34228516 364.86523438 C-203.10228516 369.81523437 -193.86228516 374.76523437 -184.34228516 379.86523438 C-172.71728516 386.42773438 -172.71728516 386.42773438 -167.11572266 389.61914062 C-160.90996097 393.13217852 -154.6304141 396.5024846 -148.34228516 399.86523438 C-140.15651531 404.24279977 -132.02980827 408.70212543 -123.96728516 413.30273438 C-115.39411011 418.19215258 -106.73872964 422.91122363 -98.02978516 427.55273438 C-89.04689771 432.34088555 -80.09768329 437.17752061 -71.21337891 442.14648438 C-61.71900282 447.45630968 -52.18002822 452.68658767 -42.65257263 457.93675232 C-38.78897889 460.06623195 -34.9281605 462.20066407 -31.06884766 464.33789062 C-29.24333006 465.34701106 -27.41780945 466.35612605 -25.59228516 467.36523438 C-24.75906738 467.82792725 -23.92584961 468.29062012 -23.06738281 468.76733398 C-19.87022547 470.88998248 -19.87022547 470.88998248 -16.34228516 471.86523438 C-12.90611403 452.37971696 -9.88334901 429.87935426 -21.67383033 412.73181736 C-31.18260879 400.34933762 -42.66300081 389.57676909 -54.0514757 378.94739356 C-59.60547519 373.75375313 -65.01051465 368.41444677 -70.41389704 363.0650086 C-80.0470334 353.5355402 -89.7858663 344.12261287 -99.6003418 334.78027344 C-109.11235383 325.72537979 -118.567004 316.6162896 -127.95385742 307.43164062 C-128.53575616 306.86231266 -129.11765489 306.2929847 -129.71718692 305.70640437 C-132.63718935 302.84885819 -135.55619829 299.99029947 -138.47479522 297.13131785 C-156.66614422 279.31450524 -174.93744519 261.58291995 -193.32836914 243.97216797 C-194.71758922 242.63980575 -194.71758922 242.63980575 -196.13487434 241.28052711 C-198.69348972 238.82799457 -201.25551544 236.37909337 -203.81907654 233.93173218 C-204.57489861 233.20710325 -205.33072069 232.48247432 -206.10944647 231.73588693 C-206.79069965 231.08745974 -207.47195284 230.43903254 -208.17385006 229.77095604 C-208.76583405 229.20569596 -209.35781805 228.64043587 -209.96774095 228.0580467 C-211.16484054 226.75599873 -211.16484054 226.75599873 -212.34228516 226.86523438 Z M-205.51196289 210.93554688 C-206.11596924 211.24234375 -206.71997559 211.54914063 -207.34228516 211.86523438 C-202.9078338 217.17347576 -198.23081581 222.1165178 -193.33169556 226.99607849 C-192.54252695 227.78610152 -191.75335835 228.57612455 -190.94027555 229.39008766 C-188.30792892 232.02407515 -185.67203569 234.65448383 -183.03613281 237.28491211 C-181.14343103 239.1773317 -179.25092867 241.06994877 -177.3586731 242.96281433 C-173.29084406 247.03116636 -169.22119591 251.09769121 -165.15028763 255.16296196 C-159.26452339 261.04058071 -153.3815399 266.92097635 -147.49921982 272.80204178 C-137.95423583 282.34484004 -128.40702329 291.88540547 -118.85839844 301.42456055 C-109.58573889 310.68803359 -100.31413579 319.95256192 -91.04394531 329.21850586 C-90.4720185 329.79016995 -89.90009169 330.36183403 -89.31083377 330.95082127 C-86.44149867 333.81885128 -83.57218426 336.68690199 -80.70288014 339.55496299 C-56.91922201 363.32826342 -33.13194268 387.09793747 -9.34228516 410.86523438 C-6.7874591 409.5928025 -4.23317981 408.31929287 -1.67919922 407.04516602 C-0.96124176 406.6877256 -0.2432843 406.33028519 0.49642944 405.96201324 C6.03624998 403.19675546 11.49223863 400.30448636 16.90771484 397.30273438 C25.37979023 392.64564927 33.88187952 388.04812058 42.40771484 383.49023438 C44.7958043 382.2130189 47.18380368 380.93563508 49.57177734 379.65820312 C50.45894943 379.18367203 50.45894943 379.18367203 51.36404419 378.69955444 C57.50945402 375.4114767 63.64679451 372.10847771 69.78271484 368.80273438 C70.8471582 368.2292627 71.91160156 367.65579102 73.00830078 367.06494141 C75.15222321 365.90974632 77.29610352 364.75447307 79.43994141 363.59912109 C84.84516921 360.68653172 90.25150052 357.77599208 95.65771484 354.86523438 C97.82438674 353.69857741 99.9910534 352.53191075 102.15771484 351.36523438 C130.32438151 336.19856771 158.49104818 321.03190104 186.65771484 305.86523438 C182.97939467 301.33907445 179.24685122 297.47098438 174.65771484 293.86523438 C162.30729795 300.50066085 149.95899015 307.13901147 137.65771484 313.86523438 C126.45916903 319.98672456 115.22196667 326.03553894 103.98095703 332.07861328 C98.49733044 335.02668699 93.01479709 337.97679001 87.53271484 340.92773438 C86.45538086 341.50765137 85.37804687 342.08756836 84.26806641 342.68505859 C76.07005352 347.10003783 67.88173455 351.53272179 59.69628906 355.97094727 C52.35711387 359.94879226 45.00911122 363.91002684 37.65771484 367.86523438 C28.92406573 372.56529154 20.19358501 377.27112223 11.47021484 381.99023438 C10.48472656 382.52261719 9.49923828 383.055 8.48388672 383.60351562 C7.55769531 384.10496094 6.63150391 384.60640625 5.67724609 385.12304688 C4.80535645 385.59129883 3.9334668 386.05955078 3.03515625 386.54199219 C1.56985576 387.35755274 0.1234084 388.20962783 -1.28613281 389.11816406 C-4.88167821 391.43139626 -7.88616852 392.46077089 -12.18903935 392.34781647 C-16.56310607 391.36750745 -19.26129002 388.00627523 -22.28294373 384.87988281 C-23.04044719 384.12850918 -23.79795066 383.37713554 -24.57840878 382.60299301 C-27.11342683 380.07881609 -29.61877207 377.52711081 -32.12524414 374.97460938 C-33.93586002 373.16010017 -35.74824718 371.34735695 -37.56227112 369.53625488 C-41.46469685 365.63226147 -45.35455271 361.71638709 -49.23361015 357.78918457 C-54.84258285 352.1107267 -60.47403537 346.45500424 -66.11129845 340.80464697 C-75.25777542 331.63579076 -84.38661391 322.44958204 -93.50415039 313.25195312 C-102.35900837 304.31939902 -111.22083245 295.39386177 -120.09301758 286.47851562 C-120.63995757 285.92890844 -121.18689757 285.37930125 -121.7504115 284.8130393 C-127.18599901 279.35119785 -132.62261144 273.89037681 -138.05920286 268.42953467 C-140.6934413 265.78350407 -143.32757365 263.13736787 -145.96168518 260.49121094 C-146.47594252 259.97463252 -146.99019986 259.45805409 -147.52004076 258.92582178 C-154.65600355 251.75734574 -161.78506547 244.582073 -168.90907441 237.40171814 C-172.20420718 234.08112433 -175.50106264 230.76224074 -178.79765892 227.44309998 C-180.56390346 225.66373711 -182.32925338 223.88348574 -184.09366989 222.10231018 C-186.4904154 219.68287139 -188.8901065 217.2663926 -191.29051208 214.85058594 C-191.99807677 214.13465145 -192.70564146 213.41871696 -193.4346475 212.68108749 C-194.07264974 212.04014271 -194.71065199 211.39919792 -195.36798763 210.73883057 C-195.92221966 210.17988224 -196.47645168 209.62093391 -197.04747862 209.04504776 C-199.74224641 206.58960518 -202.68582227 209.50004688 -205.51196289 210.93554688 Z M185.86474609 320.28710938 C184.85371826 320.81159668 183.84269043 321.33608398 182.80102539 321.87646484 C181.70185791 322.45025879 180.60269043 323.02405273 179.47021484 323.61523438 C178.33688721 324.20578613 177.20355957 324.79633789 176.03588867 325.40478516 C168.03485561 329.58832455 160.0883952 333.86254624 152.17358398 338.20654297 C144.77657881 342.26477332 137.3479239 346.26185018 129.90771484 350.24023438 C127.52225922 351.51620323 125.13685734 352.79227252 122.75146484 354.06835938 C122.16047501 354.38448181 121.56948517 354.70060425 120.96058655 355.02630615 C105.51088812 363.2925485 90.09536217 371.62228928 74.69140625 379.97338867 C67.39464997 383.92794115 60.09064513 387.86887244 52.78271484 391.80273438 C51.70828125 392.38120117 50.63384766 392.95966797 49.52685547 393.55566406 C43.97581906 396.54353513 38.42317311 399.528377 32.86865234 402.50976562 C31.74442871 403.11377197 30.62020508 403.71777832 29.46191406 404.34008789 C27.36255327 405.46794753 25.26267725 406.59484906 23.16210938 407.72045898 C13.93967027 412.67700882 4.81359939 417.77863185 -4.34228516 422.86523438 C-4.34228516 439.03523438 -4.34228516 455.20523438 -4.34228516 471.86523438 C9.26308363 465.07122842 9.26308363 465.07122842 22.78271484 458.11523438 C23.75442627 457.60774658 24.7261377 457.10025879 25.72729492 456.57739258 C33.21006634 452.65485013 40.63633397 448.63507885 48.04394531 444.57275391 C55.47451581 440.50004051 62.93549865 436.48594617 70.40771484 432.49023438 C72.79576522 431.21294585 75.18378424 429.93559872 77.57177734 428.65820312 C78.45889656 428.18370224 78.45889656 428.18370224 79.36393738 427.69961548 C85.50937778 424.41150798 91.64675841 421.10849716 97.78271484 417.80273438 C98.8471582 417.2292627 99.91160156 416.65579102 101.00830078 416.06494141 C103.15222321 414.90974632 105.29610352 413.75447307 107.43994141 412.59912109 C112.84516922 409.68653172 118.25151352 406.77601624 123.65771484 403.86523438 C124.72892578 403.28837891 125.80013672 402.71152344 126.90380859 402.1171875 C132.34471319 399.18721782 137.7860059 396.25797294 143.22802734 393.33007812 C154.1469187 387.45491803 165.06269503 381.57398326 175.97021484 375.67773438 C176.97262207 375.13689209 177.9750293 374.5960498 179.0078125 374.03881836 C179.94028809 373.53423096 180.87276367 373.02964355 181.83349609 372.50976562 C182.64729736 372.06995361 183.46109863 371.6301416 184.29956055 371.17700195 C185.07775146 370.74411865 185.85594238 370.31123535 186.65771484 369.86523438 C187.57214355 369.54280762 188.48657227 369.22038086 189.42871094 368.88818359 C192.16560527 366.40429461 192.03801522 365.62260563 192.2253418 362.02661133 C192.22454941 359.96874294 192.19625532 357.91077033 192.14599609 355.85351562 C192.13892136 354.77015427 192.13184662 353.68679291 192.1245575 352.57060242 C192.09653738 349.10561476 192.03378146 345.64223475 191.97021484 342.17773438 C191.94514198 339.83075248 191.92232706 337.48374529 191.90185547 335.13671875 C191.84668583 329.37900747 191.76298305 323.62223575 191.65771484 317.86523438 C189.62440313 317.86523438 187.61092767 319.38072308 185.86474609 320.28710938 Z " fill="#000000" transform="translate(266.34228515625,13.134765625)"/>
</svg>
